PathFileType	3	(X/Y/Z)	C:\Users\koon_\Desktop\
DataRate	CameraRate	NumFrames	NumMarkers	Units	OrigDataRate	OrigDataStartFrame	OrigNumFrames
100.0	100.0	9	27	mm	100.0	3141	3589	
Frame#	Time	get:LFHD			get:RFHD			get:LBHD			get:RBHD			get:C7			get:T10			get:CLAV			get:STRN			get:RBAK			get:LSHO			get:LUPA			get:LELB			get:LFRA			get:LWRA			get:LWRB			get:LFIN			get:RSHO			get:RUPA			get:RELB			get:RFRA			get:RWRA			get:RWRB			get:RFIN			get:LASI			get:RASI			get:LPSI			get:RPSI			
		X1	Y1	Z1	X2	Y2	Z2	X3	Y3	Z3	X4	Y4	Z4	X5	Y5	Z5	X6	Y6	Z6	X7	Y7	Z7	X8	Y8	Z8	X9	Y9	Z9	X10	Y10	Z10	X11	Y11	Z11	X12	Y12	Z12	X13	Y13	Z13	X14	Y14	Z14	X15	Y15	Z15	X16	Y16	Z16	X17	Y17	Z17	X18	Y18	Z18	X19	Y19	Z19	X20	Y20	Z20	X21	Y21	Z21	X22	Y22	Z22	X23	Y23	Z23	X24	Y24	Z24	X25	Y25	Z25	X26	Y26	Z26	X27	Y27	Z27	
3141	31.4	312.51999	1430.3046	-68.722977	241.99248	1418.2208	59.866051	190.9502	1425.2687	-133.46121	123.74624	1407.5934	3.7731643	121.05409	1271.4813	-83.414597	-0.10728302	1125.4604	-131.09988	253.58629	1099.4653	-37.384636	184.09761	955.36548	-45.351421	59.275818	1229.0791	7.1562328	246.29404	1241.4847	-181.63512	381.74316	1158.4485	-190.16824	463.88608	1055.2052	-226.36737	529.37024	1117.9742	-194.04701	680.85657	1146.6311	-102.12219	697.85693	1096.6733	-155.70454	762.27856	1133.5641	-148.08284	198.74731	1245.3619	43.092205	243.22647	1217.1704	113.36948	386.01749	1096.3052	198.1187	546.35657	1152.6072	186.15384	651.49396	1152.9216	190.59613	627.22559	1096.3867	229.03925	711.92151	1132.5278	239.91199	129.01721	854.45795	-197.73331	-54.637341	856.30518	25.960926	-67.157936	907.83325	-246.43069	-125.10046	905.78583	-178.72653
3142	31.41	311.45142	1431.7288	-67.698593	240.29308	1419.0396	60.587769	190.31253	1425.8207	-133.09419	122.47398	1407.5718	3.8607128	120.71799	1271.7303	-83.484314	0.46241805	1125.1442	-131.47278	253.39761	1099.9375	-36.548809	184.36974	955.6463	-44.808151	58.264965	1229.4674	6.7434111	246.47742	1241.8118	-181.45001	381.82025	1157.9249	-190.03783	463.57532	1054.4745	-226.59262	528.86273	1117.1896	-194.20183	679.79724	1146.363	-101.8305	697.24341	1096.5349	-155.24925	761.43787	1133.7657	-147.42694	197.58279	1245.8004	43.719715	241.64853	1217.1195	114.4236	383.28223	1095.6292	200.72475	543.63141	1151.7139	188.23058	648.60419	1152.3431	191.72243	624.95667	1095.8107	230.58694	709.51459	1132.2795	240.61165	130.02661	854.40948	-197.36716	-54.468292	856.4115	25.840399	-65.932632	907.83008	-246.70029	-124.19136	905.82898	-179.18724
3143	31.42	310.46344	1433.3805	-66.636086	238.53363	1420.0175	61.242039	189.50626	1426.4464	-132.67615	121.07887	1407.701	3.8070624	120.38412	1272.1058	-83.593155	0.71199256	1124.9404	-132.07684	253.11276	1100.5454	-35.718327	184.73991	955.97485	-44.203167	57.258327	1229.7395	6.1315646	246.48976	1242.0258	-181.30562	381.88129	1157.3202	-189.83916	463.07486	1053.6613	-226.75125	528.22455	1116.2859	-194.40599	678.68848	1145.8356	-101.74843	696.43671	1096.0228	-155.06891	760.55341	1133.4286	-146.76076	196.23941	1246.2964	44.23423	239.85924	1217.0815	115.671	380.19009	1094.7108	203.27611	540.505	1150.5208	190.43211	645.33936	1151.5549	192.9671	622.26794	1094.92	232.02817	706.73322	1131.7681	241.23679	131.14986	854.41351	-196.93147	-54.299389	856.59729	25.680431	-64.782471	907.8125	-246.82971	-123.1835	905.86096	-179.58618
3144	31.43	309.10754	1434.9315	-65.580452	236.5909	1421.0884	61.781891	188.76244	1427.421	-132.44582	119.58361	1408.0614	3.7048557	119.94282	1272.6088	-83.851334	0.98163903	1124.7743	-132.69627	252.83083	1101.2712	-35.022758	185.14951	956.32758	-43.664246	56.035442	1230.2804	5.4952497	246.52902	1242.4967	-181.17174	381.845	1156.6846	-189.56219	462.44012	1052.7139	-227.05959	527.50244	1115.1936	-194.72571	677.57556	1144.9166	-101.90481	695.55298	1095.157	-155.11928	759.65039	1132.5862	-146.31865	194.79001	1246.9125	44.677834	237.86838	1217.033	116.90608	376.5769	1093.5027	206.1953	536.94385	1148.9462	192.64923	641.55884	1150.3289	194.19247	619.20782	1093.6886	233.35147	703.46777	1130.9481	241.90871	132.24783	854.42499	-196.45526	-54.033131	856.78326	25.602617	-63.481949	907.88562	-247.09897	-122.15704	905.95532	-180.05267
3145	31.44	307.98468	1436.8689	-64.522896	234.55984	1422.3605	62.309765	188.03487	1428.4487	-132.11938	118.0005	1408.6459	3.4071257	119.37917	1273.257	-84.179115	1.1970496	1124.6163	-133.2829	252.53496	1102.1282	-34.433239	185.60843	956.71594	-43.166901	54.663979	1230.9059	4.6846561	246.79907	1243.1143	-181.40639	381.73184	1156.0062	-189.42644	461.58243	1051.6171	-227.29204	526.67987	1113.8529	-195.1174	676.43378	1143.6073	-102.1805	694.58801	1093.7202	-155.2426	758.75104	1131.3104	-146.12708	193.11237	1247.7578	45.17646	235.70346	1217.0134	118.3732	372.46735	1091.8683	209.33156	532.86743	1146.9092	195.07605	637.25928	1148.6904	195.33797	615.66205	1091.9409	234.85686	699.75433	1129.5117	242.47792	133.52582	854.49866	-195.92511	-53.729206	856.98505	25.505686	-62.175621	907.96063	-247.22488	-121.00993	906.08051	-180.4404
3146	31.45	306.63693	1438.8195	-63.520432	232.35155	1423.8041	62.794304	187.26543	1429.839	-132.0515	116.44069	1409.6152	2.646992	118.81839	1273.975	-84.829849	1.3957292	1124.5209	-133.89357	252.32249	1103.1339	-34.065067	186.19791	957.18701	-42.624405	53.156025	1231.692	3.8374605	246.57339	1243.8135	-181.16789	381.55966	1155.3197	-189.34219	460.46323	1050.3556	-227.71265	525.75842	1112.2571	-195.66617	675.31201	1141.8177	-102.57585	693.5022	1091.8768	-155.61012	757.81061	1129.1827	-145.93645	191.38184	1248.682	45.733463	233.272	1216.9413	119.88345	367.75745	1089.7673	212.83821	528.29645	1144.4531	197.64719	632.49194	1146.489	196.59886	611.57733	1089.5802	236.09752	695.54993	1127.3285	242.89975	134.85677	854.68793	-195.37749	-53.41935	857.26947	25.368267	-60.700748	908.10547	-247.37613	-119.82922	906.26434	-180.81017
3147	31.46	305.2771	1440.8499	-62.518074	230.04999	1425.4967	63.201027	186.41357	1431.3187	-131.9268	114.61508	1410.7111	2.6151011	118.14549	1275.0796	-85.291321	1.5476418	1124.4813	-134.5256	251.98007	1104.4402	-33.428974	186.73058	957.89978	-41.945007	51.600651	1232.6427	2.9866772	246.49554	1244.7067	-181.13933	381.39899	1154.5421	-189.31351	459.10336	1048.8685	-228.20163	524.76501	1110.3564	-196.24065	674.04224	1139.4642	-103.11324	692.27008	1089.4603	-156.11052	756.78583	1126.5002	-145.895	189.48616	1249.8051	46.279453	230.62227	1216.8435	121.58458	362.42496	1087.2285	216.3674	523.22626	1141.4291	200.33461	627.12225	1143.7192	197.88695	607.00354	1086.6067	237.25298	690.81671	1124.6228	243.30864	136.26463	854.89972	-194.79997	-53.011425	857.61511	25.229187	-59.145294	908.33148	-247.50552	-118.60163	906.38861	-181.09833
3148	31.47	303.79745	1443.0372	-61.531364	227.62532	1427.344	63.597218	185.58562	1433.0483	-131.93523	112.72729	1412.1451	1.9686095	117.35064	1276.177	-85.849533	1.7302797	1124.5605	-135.47572	251.45006	1105.7717	-32.480186	187.20819	958.50177	-41.001663	49.904137	1233.6359	2.0123715	246.38092	1245.8052	-181.18114	381.1864	1153.6368	-189.51993	457.51462	1047.1108	-228.85489	523.62885	1108.1111	-197.09322	672.6731	1136.4884	-103.9027	690.86749	1086.3978	-156.5883	755.64801	1123.097	-145.88243	187.48503	1251.0605	46.883751	227.86517	1216.6658	123.42262	356.63522	1084.3027	219.59294	517.65894	1137.9365	203.063	621.17212	1140.3041	199.2408	601.86658	1082.9357	238.47961	685.49933	1121.1342	243.67473	137.82401	855.2027	-194.09221	-52.530117	858.06281	25.179106	-57.408215	908.59637	-247.71979	-117.22968	906.64374	-181.49513
3149	31.48	302.28793	1445.317	-60.611839	225.04698	1429.3682	63.867958	184.74785	1435.0093	-132.09669	110.77586	1413.8203	1.2698437	116.41407	1277.3138	-85.771782	1.7999434	1124.6401	-136.12489	251.07803	1107.4858	-31.6833	188.0743	959.70111	-40.55658	48.212082	1234.734	1.0458	246.32321	1247.005	-181.29997	380.91406	1152.6083	-189.91234	455.69171	1045.0204	-229.64899	522.36389	1105.4553	-198.10698	671.13879	1132.9373	-104.73335	689.29089	1082.5447	-157.20265	754.39893	1118.7948	-145.89188	185.23143	1252.4155	47.384743	224.8354	1216.4578	125.40514	350.26776	1080.9603	223.22092	511.54727	1133.7919	205.91068	614.74506	1136.2249	200.59027	596.03558	1078.5093	239.43201	679.78052	1116.4333	243.66302	139.46217	855.61646	-193.31276	-52.054897	858.55054	25.09536	-55.611607	908.91217	-247.93466	-115.63691	906.99347	-182.03488
